<?xml version="1.0"?>
<!--Icons from directory ""-->
<svg xmlns="http://www.w3.org/2000/svg" width="32" height="32" viewBox="0 0 32 32"><svg xmlns:xlink="http://www.w3.org/1999/xlink" id="logo-magictour" xml:space="preserve" viewBox="0 0 454.5 349.4" version="1.1" y="0" x="0px" enable-background="new 0 0 454.5 349.4" width="32" height="32"><g fill="#F9F3CB"><path d="m99.1 292.9l-2.6 2.5c-1.8-1.9-3.7-2.8-5.9-2.8-1.9 0-3.4 0.6-4.7 1.9s-1.9 2.8-1.9 4.7c0 1.3 0.3 2.4 0.8 3.4 0.6 1 1.4 1.8 2.4 2.4s2.2 0.9 3.4 0.9c1.1 0 2.1-0.2 2.9-0.6 0.9-0.4 1.9-1.1 2.9-2.2l2.5 2.6c-1.4 1.4-2.8 2.4-4.1 2.9s-2.7 0.8-4.4 0.8c-3 0-5.5-1-7.4-2.9s-2.9-4.4-2.9-7.4c0-1.9 0.4-3.7 1.3-5.2s2.1-2.7 3.8-3.6c1.6-0.9 3.4-1.4 5.3-1.4 1.6 0 3.1 0.3 4.6 1 1.7 0.8 3 1.8 4 3"/><path d="m132.6 289c2.7 0 5.1 1 7.1 3s3 4.4 3 7.3c0 2.8-1 5.2-2.9 7.2-2 2-4.3 2.9-7.1 2.9-2.9 0-5.3-1-7.3-3-1.9-2-2.9-4.4-2.9-7.2 0-1.9 0.5-3.6 1.3-5.1 0.9-1.6 2.1-2.8 3.7-3.7s3.3-1.4 5.1-1.4m0 3.6c-1.8 0-3.3 0.6-4.5 1.9s-1.8 2.8-1.8 4.8c0 2.1 0.8 3.8 2.3 5.1 1.2 1 2.6 1.5 4.1 1.5 1.8 0 3.2-0.6 4.5-1.9 1.2-1.3 1.9-2.8 1.9-4.7 0-1.8-0.6-3.4-1.9-4.7s-2.9-2-4.6-2"/><polygon points="167.2 289.5 170.9 289.5 170.9 305.4 176.3 305.4 176.3 308.9 167.2 308.9"/><path d="m209.3 289c2.7 0 5.1 1 7.1 3s3 4.4 3 7.3c0 2.8-1 5.2-2.9 7.2s-4.3 2.9-7.1 2.9c-2.9 0-5.3-1-7.3-3-1.9-2-2.9-4.4-2.9-7.2 0-1.9 0.4-3.6 1.3-5.1 0.9-1.6 2.1-2.8 3.7-3.7s3.3-1.4 5.1-1.4m0 3.6c-1.8 0-3.3 0.6-4.5 1.9s-1.8 2.8-1.8 4.8c0 2.1 0.8 3.8 2.3 5.1 1.2 1 2.6 1.5 4.1 1.5 1.8 0 3.2-0.6 4.5-1.9 1.2-1.3 1.9-2.8 1.9-4.7 0-1.8-0.6-3.4-1.9-4.7s-2.8-2-4.6-2"/><polygon points="245.8 289.5 249.4 289.5 253.9 303.1 258.5 289.5 262.1 289.5 265.3 308.9 261.8 308.9 259.7 296.7 255.6 308.9 252.3 308.9 248.2 296.7 246.1 308.9 242.5 308.9"/><path d="m289.3 308.9v-19.4h3c1.8 0 3.1 0.1 3.9 0.3 1.2 0.3 2.1 0.9 2.8 1.7s1 1.8 1 3c0 0.7-0.2 1.4-0.5 2s-0.8 1.2-1.5 1.7c1.2 0.6 2 1.2 2.6 2.1 0.5 0.8 0.8 1.8 0.8 2.9s-0.3 2.1-0.8 3c-0.6 0.9-1.3 1.6-2.2 2s-2.1 0.7-3.7 0.7h-5.4zm3.7-15.9v4.1h0.8c0.9 0 1.6-0.2 2-0.6s0.7-0.9 0.7-1.5-0.2-1.1-0.6-1.4c-0.4-0.4-1-0.5-1.9-0.5l-1-0.1zm0 7.4v5h0.9c1.5 0 2.6-0.2 3.1-0.6s0.8-0.9 0.8-1.7-0.3-1.5-0.9-2-1.7-0.7-3.1-0.7h-0.8z"/><rect y="289.5" x="325.8" height="19.4" width="3.7"/><path d="m360.7 289.5h3.8l7.5 19.4h-4l-1.5-4h-7.9l-1.6 4h-3.8l7.5-19.4zm1.9 5.2l-2.6 6.7h5.2l-2.6-6.7z"/></g><g fill="#65491D"><path d="m71.6 52.6h-21.2c-9.7 0-11.1 7.5-11.1 11.1 0 3.5-0.5 90.5-0.5 90.5l21.2-0.2v-80.9l21.4 81.4h22.3l21.4-81.9v81.4h19.9v-101.4h-31.9l-20.9 76.8-20.6-76.8z"/><path d="m220 123.5v-25.3c0-11.3-5-24.4-33.3-24.4-32.6 0-33.8 21.8-33.8 21.8l20.9 0.4s0.2-5.3 13.3-5.5c13.7-0.2 23.4 11.4-8.4 15.4-30 3.8-27.6 23.4-27.6 23.4-0.2 5.3-1.6 28.2 35.1 26.3 36.8-2 33.8-32.1 33.8-32.1m-37.6 15.9c-12.2 0.4-12.7-9.3-9.3-14.9 3.6-5.9 23.6-5.5 26.7-9.7-0.1 9.8 0.8 23.9-17.4 24.6"/><path d="m303.7 149.9s-0.2-12.8 0-38.7c0.2-26.7-14.3-36.8-40.8-36.8 0 0-35.2-4.2-35.2 40.4 0 30.7 20.8 41.1 34.5 41.1s21.1-11 21.1-11 0.8 23.2-15.8 24c-12.5 0.6-15.6-7.4-15.6-7.4l-22.1 0.2s2.7 26.9 35.8 25.5c44-2 38.1-37.3 38.1-37.3m-38.7-11.4c-19.4 0-16.2-26.1-16.2-26.1s-1.5-20.4 16.8-20.6c18.3-0.2 17.5 24.2 17.5 24.2s1.2 22.5-18.1 22.5"/><path d="m313.2 76v77.9h21.5v-67.4s0-10.4-10.4-10.4c-10.5 0-11.1-0.1-11.1-0.1"/><path d="m334.7 69.7h-21.5v-16.9h11.6c7.4 0 10.1 6.7 10.1 10.3s-0.2 6.6-0.2 6.6"/><path d="m415.9 99.8l-21.1 0.2s-4.2-9.1-15.2-8.4c-10.9 0.6-15.2 7.4-15.8 23.4s7.2 23.6 17.1 23.4c8.2-0.2 9.7-2.1 11.2-3.4s2.5-4.8 10.1-5.3c7.6-0.4 14.5 0.2 14.5 0.2s-4 25.1-36 25.9c-32 0.8-37.9-28-38.1-41.7s5.7-40 36.8-40.4c32.7-0.5 36.5 26.1 36.5 26.1"/></g><g fill="#F9F3CB"><path d="m154.1 187.2v-18.4h-93.5c-15.5 0-15.3 10.3-15.3 10.3v7.8h40.3v83.1h28.7v-82.8h39.8z"/><path d="m236.8 228.9s2.3-39-48.3-39c-52.7 0-48.7 41.5-48.7 41.5s-3.2 40.1 49.5 40.1c52.7 0 47.5-42.6 47.5-42.6m-48.3 25.7c-22.1 0-21.5-19.6-21.5-23s-1.5-24 20.7-24c22.1 0 22.1 17.9 22.1 22.1s-0.7 24.9-21.3 24.9"/><path d="m269.2 191.6h-28v48.3c0 16.2 9.5 23.9 21.1 27.4 15.1 4.5 27 6.1 47.4 1.2 10-2.4 23.6-7.8 23.6-32.4v-44.3h-13.7c-7.6 0-13.7 3.7-13.7 11.6v34.8c0 2.9 2 16.9-18.6 16.9-19.2 0-18.3-11.3-18.3-18.3 0-7.2 0.2-45.2 0.2-45.2"/><path d="m397 191.6v21.1s-2.3 0.3-12.1 0.3c-13.9 0-19.7 6.3-19.7 21.8v35.4h-27.3v-36.9c0-29.8 19.2-35 29.5-38.4 10.2-3.5 29.6-3.3 29.6-3.3"/></g></svg></svg>
