<?xml version="1.0" encoding="utf-8"?>
<!-- Generator: Adobe Illustrator 14.0.0, SVG Export Plug-In . SVG Version: 6.00 Build 43363)  -->
<!DOCTYPE svg PUBLIC "-//W3C//DTD SVG 1.1//EN" "http://www.w3.org/Graphics/SVG/1.1/DTD/svg11.dtd">
<svg version="1.1" id="Layer_1" xmlns="http://www.w3.org/2000/svg" xmlns:xlink="http://www.w3.org/1999/xlink" x="0px" y="0px"
	 width="800px" height="600px" viewBox="0 0 800 600" enable-background="new 0 0 800 600" xml:space="preserve">
<path fill-rule="evenodd" clip-rule="evenodd" fill="#FFFFFF" d="M270.518,300.434c-5.089-15.265-25.444-15.265-29.964,0H270.518z
	 M373.415,346.229v-78.59h-23.748v44.667c0,8.483-11.872,8.483-11.872,0v-44.667h-23.741V238.24h-24.313v52.581
	c-7.352-16.957-22.621-25.44-40.709-22.612c-13.572,2.828-22.616,10.18-27.706,22.612c-4.524-14.699-15.265-22.612-30.53-23.182
	c-15.83,0-28.271,7.356-32.792,23.182c-7.917-18.088-24.313-26.571-43.537-22.047c-11.31,3.394-18.662,9.614-23.748,20.354V238.24
	H66.408v102.908h24.313v-22.621c6.786,13.573,18.658,20.925,33.923,21.49c16.396-1.131,26.571-8.483,33.361-23.187v24.317h23.178
	v-44.106c1.131-9.609,15.835-10.171,16.4,0v44.106h23.743v-23.187c5.09,11.876,13.572,19.228,26.575,22.612
	c27.706,2.836,38.447-16.392,38.447-21.481l-19.789-2.827c-10.179,7.352-21.485,3.393-25.44-6.786h48.622v31.669h24.313v-15.835
	c3.955,15.835,23.741,21.481,35.052,9.614c0,3.394,0,7.343-1.131,10.736c-3.958,9.048-15.828,9.048-22.049,2.827l-14.134,18.662
	c9.044,7.344,18.086,10.736,29.962,9.614c9.614-1.131,15.835-2.827,23.187-9.614C370.587,360.932,373.415,354.711,373.415,346.229
	 M123.512,287.997c8.483,0,15.269,6.782,15.269,15.261c0,8.482-6.786,15.834-15.269,15.834c-8.478,0-15.265-7.352-15.265-15.834
	C108.248,294.779,115.034,287.997,123.512,287.997"/>
<path fill-rule="evenodd" clip-rule="evenodd" fill="#FFFFFF" d="M647.632,299.308h29.398
	C672.506,284.038,651.582,284.604,647.632,299.308 M734.131,313.437l1.131-1.131l0.565,20.358
	c0.565,5.09-18.088,12.442-28.833,4.524c-10.18-7.352-10.18-15.834-10.18-27.71h-49.183c5.655,14.138,22.047,12.441,26.571,5.654
	l20.35,3.394c-7.343,23.187-27.701,26.58-46.355,19.794c-10.18-4.524-15.83-10.18-20.354-20.359v23.187H604.1v-44.672
	c-0.565-9.605-15.834-9.044-15.834,0.565v44.106l-23.748,0.565h-15.83l-0.565-14.138c0-5.655-6.217,14.694-13.568,14.138
	c-16.962,1.122-29.964-7.352-36.75-22.056v21.49H473.49v-21.49c-7.348,14.139-25.444,23.178-43.536,18.663l-2.828-1.132
	c0,0,0.57,24.874,0.57,31.661h-23.743v-64.461c0.561-29.96,33.348-48.057,57.666-29.96c5.65,4.516,8.478,8.474,11.871,14.699V238.24
	h24.313v50.888c7.347-16.396,22.616-23.748,40.709-20.92c13.002,3.393,20.92,10.18,26.005,22.612
	c6.786-19.785,25.444-27.702,45.233-20.916c9.609,4.524,14.699,10.745,18.092,20.916c9.044-19.785,28.272-27.702,48.057-20.916
	c10.18,4.524,16.392,10.745,20.915,20.916v-37.881h23.188v14.699h14.694v22.051h-14.694c0,7.352-1.132,14.699,1.131,21.485
	C723.395,315.699,729.615,316.83,734.131,313.437 M530.595,288.567c8.483,0,15.265,6.777,15.265,15.265
	c0,8.474-6.781,15.26-15.265,15.26c-8.479,0-15.265-6.786-15.265-15.26C515.33,295.344,522.116,288.567,530.595,288.567
	 M441.264,288.567c8.479,0,15.266,6.777,15.266,15.265c0,8.474-6.787,15.26-15.266,15.26c-8.482,0-15.264-6.786-15.264-15.26
	C426,295.344,432.781,288.567,441.264,288.567"/>
<path fill-rule="evenodd" clip-rule="evenodd" fill="#FFFFFF" d="M239.986,247.849c22.046-64.448,83.11-110.812,154.353-110.812
	c71.804,0,132.298,45.794,154.344,110.812l-8.474,2.828l-8.492,2.828c-19.784-57.1-73.491-97.809-137.378-97.809
	c-63.325,0-117.603,41.274-137.957,98.375L239.986,247.849z"/>
<path fill-rule="evenodd" clip-rule="evenodd" fill="#FFFFFF" d="M548.688,354.711c-22.051,63.321-83.11,108.555-154.349,108.555
	c-71.806,0-132.309-44.668-154.351-108.555l8.479-2.827l7.913-2.828c20.358,55.979,74.07,95.557,137.959,95.557
	c63.321,0,117.599-40.144,137.952-96.122L548.688,354.711z"/>
<polygon fill-rule="evenodd" clip-rule="evenodd" fill="#FFFFFF" points="704.167,352.449 716.608,352.449 716.608,354.146 
	710.957,354.146 710.957,367.719 709.257,367.719 709.257,354.146 704.167,354.146 "/>
<polygon fill-rule="evenodd" clip-rule="evenodd" fill="#FFFFFF" points="730.742,367.719 730.742,358.67 730.742,354.711 
	726.223,367.719 724.521,367.719 720.002,354.711 720.002,358.67 720.002,367.719 718.305,367.719 718.305,352.449 721.133,352.449 
	725.656,364.891 729.615,352.449 733.004,352.449 733.004,367.719 "/>
</svg>
